<?xml version="1.0" encoding="utf-8"?>
<!-- Generator: Adobe Illustrator 27.0.0, SVG Export Plug-In . SVG Version: 6.00 Build 0)  -->
<svg version="1.1" id="Capa_1" xmlns="http://www.w3.org/2000/svg" xmlns:xlink="http://www.w3.org/1999/xlink" x="0px" y="0px"
	 viewBox="0 0 253.3 65.2" style="enable-background:new 0 0 253.3 65.2;" xml:space="preserve">
<style type="text/css">
	.st0{fill:#020203;stroke:#020203;stroke-miterlimit:10;}
	.st1{fill:none;}
	.st2{font-family:'NHL_Edge_Buffalo';}
	.st3{font-size:12px;}
</style>
<g>
	<path class="st0" d="M3.5,47.7L21.7,0.5h4.4L7.9,47.7H3.5z"/>
	<path class="st0" d="M23.4,47.7L41.6,0.5h4.4L27.8,47.7H23.4z"/>
	<path class="st0" d="M48.2,5.3V0H72v5.3h-8.8v43.6H57V5.3H48.2z"/>
	<path class="st0" d="M80.3,48.9V0h18.9v5.3H86.5v16.5h11.6v5.3H86.5v16.5h12.8v5.3L80.3,48.9L80.3,48.9z"/>
	<path class="st0" d="M130.9,11.6h-6v-0.8c0-1.6-0.6-2.9-1.7-4c-1.1-1.1-2.4-1.7-4-1.7s-2.9,0.6-4,1.7c-1.1,1.1-1.7,2.4-1.7,4v27.2
		c0,1.6,0.6,2.9,1.7,4s2.4,1.7,4,1.7s2.9-0.6,4-1.7s1.7-2.4,1.7-4v-0.8h6c0,3.2-1.1,5.9-3.4,8.2c-2.3,2.3-5,3.4-8.2,3.4
		s-6-1.1-8.2-3.4s-3.4-5-3.4-8.2V11.6c0-3.2,1.1-5.9,3.4-8.2c2.3-2.3,5-3.4,8.2-3.4s6,1.1,8.2,3.4C129.8,5.7,130.9,8.4,130.9,11.6z"
		/>
	<path class="st0" d="M145.7,0v43.6h12.8v5.3h-18.9V0H145.7z"/>
	<path class="st0" d="M166.1,48.9V0H185v5.3h-12.8v16.5h11.6v5.3h-11.6v16.5H185v5.3L166.1,48.9L166.1,48.9z"/>
	<path class="st0" d="M205.9,0c3.3,0,6.1,1.2,8.4,3.5c2.3,2.3,3.5,5.1,3.5,8.4v4.7c0,2.4-0.7,4.7-2,6.6s-3.1,3.4-5.2,4.3l7.2,21.3
		h-6.5l-6.9-20.3h-4.4v20.3H194V0H205.9z M211.7,17.5L211.7,17.5l-0.1-6.4c0-1.6-0.6-3-1.7-4.1c-1.1-1.1-2.5-1.7-4.1-1.7h-5.8v18
		h5.8c1.6,0,3-0.6,4.1-1.7C211.1,20.5,211.7,19.1,211.7,17.5z"/>
	<path class="st0" d="M229.5,3.4c2.3-2.3,5-3.4,8.2-3.4s6,1.1,8.2,3.4s3.4,5,3.4,8.2v1h-6v-1.8c0-1.6-0.6-2.9-1.7-4s-2.4-1.7-4-1.7
		s-2.9,0.6-4,1.7c-1.1,1.1-1.7,2.4-1.7,4v4.4c0,0.8,0.3,1.6,0.8,2.3s1.1,1.3,1.9,1.6l9.3,3.9c1.5,0.6,2.8,1.7,3.8,3.2
		s1.6,3.2,1.6,4.8v6.2c0,3.2-1.1,5.9-3.4,8.2c-2.3,2.3-5,3.4-8.2,3.4s-6-1.1-8.2-3.4s-3.4-5-3.4-8.2v-1h6V38c0,1.6,0.6,2.9,1.7,4
		s2.4,1.7,4,1.7c1.6,0,2.9-0.6,4-1.7s1.7-2.4,1.7-4v-5.9c0-0.8-0.3-1.6-0.8-2.3c-0.5-0.8-1.1-1.3-1.9-1.6l-9.3-3.9
		c-1.5-0.6-2.7-1.7-3.8-3.1c-1.1-1.4-1.6-2.9-1.6-4.4v-5.2C226.1,8.4,227.2,5.7,229.5,3.4z"/>
</g>
<rect x="138.3" y="53.2" class="st1" width="146.9" height="16.8"/>
<text transform="matrix(1 0 0 1 138.2674 62.7722)" class="st2 st3">TECLA COMUNITY</text>
</svg>
